<?xml version="1.0" encoding="utf-8"?>
<!-- Generator: Adobe Illustrator 19.0.0, SVG Export Plug-In . SVG Version: 6.00 Build 0)  -->
<svg version="1.1" id="Calque_1" xmlns="http://www.w3.org/2000/svg" xmlns:xlink="http://www.w3.org/1999/xlink" x="0px" y="0px"
	 viewBox="0 0 105.8 113" style="enable-background:new 0 0 105.8 113;" xml:space="preserve">
<style type="text/css">
	.st0{fill:#F5916A;}
	.st1{fill:#F05F62;}
	.st2{fill:#EF5160;}
	.st3{fill:#EF5361;}
	.st4{fill:#F37F67;}
	.st5{fill:#F16664;}
	.st6{fill:#F16D66;}
</style>
<g>
	<path class="st0" d="M104.9,0.1c1.2,1.4,0.8,3.2,0.8,4.8c0,26.5,0,53,0,79.5c0,14.4-14.9,23.4-27.8,16.9c-6.5-3.3-8.2-10-3.7-15.9
		c4.8-6.4,11.6-8.9,19.3-7.9c3.3,0.4,3.6-0.7,3.6-3.3c-0.1-15.7-0.1-31.3-0.2-47c-1.3-2.5-1.2-5.8-4.3-7.2c2.8-3,2.2-7.1,3.7-10.5
		c3.2-1,2.2,2.3,3.6,3.6c2.3-1.8,3.2-4.2,3.3-7.1C103.5,3.9,103,1.7,104.9,0.1z"/>
	<path class="st1" d="M18.9,87.2c6.9-0.3,6.9-0.3,6.9-7.2c0-4.3,0.1-8.6,0.2-12.8c3.7-7.7,6.4-15.5,5.4-24.3
		c-0.2-1.8-0.3-4.1,2.4-4.7c0,18.8,0,37.6,0,56.4c0,13.8-13.1,22.2-26.1,16.7C11.2,103.1,14,94.7,18.9,87.2z"/>
	<path class="st2" d="M33.8,38.2c-1.8,4-1.1,8.2-0.8,12.2c0.6,7-3.3,11.8-7.1,16.7c-0.1-14.8-0.1-29.6-0.3-44.4
		c0-2.1,0.7-3.3,2.7-4.1c8.3-3.4,16.7-6.5,25.4-8.6c2.5,3,0.8,5.7-0.7,8.3c-2.1,2.7-5.4,3-8.3,4.2c-2.3,0.9-4.7,1.7-6.9,2.8
		c-1.2,0.6-2.5,1.5-2,3c0.6,1.9,2.2,0.8,3.4,0.6c2.8-0.6,5.4-1.6,8.3-1.1c3.2,1.2,4.3,2.8,1.2,5.3C44,35.2,38.5,35.4,33.8,38.2z"/>
	<path class="st3" d="M18.9,87.2c-1.8,7.5-5.6,14.2-8.6,21.2c-0.5,1.2-1.3,2.3-2.6,2.9c-6.8-2-9.7-8.6-6.3-14.8
		C5.2,89.6,11.6,87.5,18.9,87.2z"/>
	<path class="st4" d="M104.9,0.1c0,5.2,0.9,10.6-3.7,14.6c-0.8,0.7-1,2.4-2.5,1.7c-1.1-0.5-0.7-1.7-0.8-2.7c-0.2-1.6,0.5-3.3-1-4.6
		c-4.9,3.3-10.2,3.9-15.8,2.5c-2.1-3.4,0-6,1.8-8.6C90.1,1,97.4-0.3,104.9,0.1z"/>
	<path class="st5" d="M82.9,3.1c0.6,3-1.6,5.3-2,8.1c-0.5,1.7-1.9,2.2-3.4,2.5c-7.1,1.4-14.2,3.4-21.2,5.2c-1.5,0.4-2.9,0.6-4.3-0.5
		c1.2-2.7,2.4-5.3,1.9-8.3C63.3,6.4,73,4.4,82.9,3.1z"/>
	<path class="st6" d="M48.9,33.2c1.5-2.6,0.9-4.1-2.2-4.2c0.2-1.8,1.7-2.5,3.1-2.9c8.3-2.4,16.7-4.4,25.3-5.4
		c1.2-0.1,2.3,0.1,3.4,0.7c2.3,2.1,2.3,4.3,0.4,6.6C68.9,29.8,58.9,31.5,48.9,33.2z"/>
	<path class="st4" d="M78.9,28.1c-0.3-2,0.8-4.3-1.1-6c3.1-3.6,10-4.6,14.9-2.1c6.7-0.8,4.8,3.6,4.2,7.1
		C90.9,27.4,84.9,27.7,78.9,28.1z"/>
</g>
</svg>
